<?xml version="1.0" standalone="no"?>
<!DOCTYPE svg PUBLIC "-//W3C//DTD SVG 20010904//EN"
 "http://www.w3.org/TR/2001/REC-SVG-20010904/DTD/svg10.dtd">
<svg version="1.0" xmlns="http://www.w3.org/2000/svg"
 width="335.000000pt" height="745.000000pt" viewBox="0 0 335.000000 745.000000"
 preserveAspectRatio="xMidYMid meet">

<g
fill="#000000" stroke="none">
<path d="M413 3803 c-10 -3 -13 -52 -13 -194 l0 -190 68 3 67 3 0 40 c1 22 2
60 3 85 3 43 3 44 18 25 8 -11 32 -50 52 -87 l37 -68 46 0 47 0 48 85 c27 47
52 85 57 85 4 0 7 -38 7 -85 l0 -85 70 0 70 0 0 189 c0 105 -3 192 -7 194 -5
3 -44 2 -89 0 l-80 -5 -58 -104 c-32 -57 -61 -104 -64 -104 -4 0 -33 50 -65
110 l-58 110 -72 -1 c-40 0 -78 -3 -84 -6z"/>
<path d="M1203 3803 l-183 -3 0 -190 0 -190 200 0 200 0 0 50 0 49 -127 3
c-124 3 -128 4 -131 26 -3 22 -3 22 127 22 l131 0 0 45 0 45 -130 0 c-123 0
-130 1 -130 20 0 19 7 20 131 20 l130 0 -3 52 c-2 39 -7 53 -18 53 -8 0 -97
-1 -197 -2z"/>
<path d="M1933 3804 c-10 -4 -13 -53 -13 -195 l0 -189 70 0 70 0 0 45 0 45 88
1 c48 0 98 3 112 5 122 23 150 205 40 269 -31 17 -55 20 -195 22 -88 1 -166 0
-172 -3z m295 -146 l3 -28 -85 0 -86 0 0 30 0 31 83 -3 c81 -3 82 -3 85 -30z"/>
<path d="M2400 3614 l0 -194 65 0 64 0 3 63 3 62 90 5 c50 3 102 3 118 1 26
-3 27 -5 27 -67 l0 -64 70 0 70 0 -2 193 -3 192 -65 0 -65 0 -3 -68 -3 -68
-117 3 -117 3 -3 67 -3 68 -64 -1 -65 -1 0 -194z"/>
<path d="M1450 3610 l0 -190 70 0 70 0 0 45 0 45 44 0 c42 0 46 -2 70 -45 l27
-45 80 0 79 0 -29 52 -30 52 24 28 c58 69 54 161 -10 217 l-36 31 -179 0 -180
0 0 -190z m305 50 c0 -24 -2 -25 -82 -28 l-83 -3 0 31 0 31 83 -3 c80 -3 82
-4 82 -28z"/>
</g>
</svg>
